<?xml version="1.0" encoding="UTF-8"?>
<svg id="_Слой_2" data-name="Слой 2" xmlns="http://www.w3.org/2000/svg" xmlns:xlink="http://www.w3.org/1999/xlink" viewBox="0 0 56 56">
  <defs>
    <style>
      .cls-1 {
        fill: #fff;
      }

      .cls-2 {
        clip-path: url(#clippath);
      }

      .cls-3 {
        fill: none;
      }

      .cls-4 {
        fill: #303851;
      }
    </style>
    <clipPath id="clippath">
      <rect class="cls-3" x="18" y="18.5" width="20" height="20"/>
    </clipPath>
  </defs>
  <g id="_Слой_1-2" data-name="Слой 1">
    <rect class="cls-4" width="56" height="56"/>
    <g class="cls-2">
      <path class="cls-1" d="m19.45,22.26l-.34-.89-.76.29.17.8.93-.2Zm15.37,14.7l-.16.94.76.13.29-.71-.89-.36Zm2.03-4.99l.89.36-.46-1.22-.43.86Zm-12.15-11.74l.86-.43-1.2-.46.34.89Zm6.08,11.33l-.49.82,1.31-.33-.82-.49Zm-5.49-5.26l-.53-.8-.26,1.35.78-.55Zm1.84-1.21l.53.8.33-1.23-.86.43Zm4.86,4.45l.43-.86-1.25.36.82.49Zm3,6.47c-7.26-1.24-13.04-6.82-14.59-13.96l-1.87.41c1.71,7.9,8.11,14.06,16.14,15.44l.32-1.89Zm.72,1.3l2.03-4.99-1.77-.72-2.03,4.99,1.77.72Zm-15.91-14.17l5.24-2.02-.69-1.78-5.24,2.02.69,1.78Zm11.46,7.6c-1.89-1.13-3.91-3.17-5.2-4.99l-1.56,1.1c1.4,1.99,3.61,4.23,5.78,5.53l.98-1.64Zm-5.45-3.64l1.84-1.21-1.05-1.6-1.84,1.21,1.05,1.6Zm5.78,4.95l1.22-2.02-1.64-.98-1.22,2.02,1.64.98Zm-.03-1.66l4.86,2.43.85-1.71-4.86-2.43-.85,1.71Zm-3.58-5.74l-2.43-4.86-1.71.86,2.43,4.86,1.71-.86Z"/>
    </g>
  </g>
</svg>